<?xml version="1.0" encoding="UTF-8"?>
<svg width="1200" height="1200" xmlns="http://www.w3.org/2000/svg">
 <title>clef</title>
 <g>
  <title>Layer 1</title>
  <path transform="rotate(-0.027732 286.198 538.886)" fill="black" d="m293.314575,783.429871c-46.651367,-2.711487 -94.281799,-31.972595 -122.768188,-65.556763c-33.026825,-38.938599 -46.643219,-91.879272 -43.155365,-135.354919c10.246216,-127.743408 149.164185,-203.245728 200.588104,-259.045013c34.421021,-37.349884 41.636963,-55.557373 49.325317,-74.766754c14.884705,-37.183197 17.282471,-80.748779 -12.227173,-84.001282c-28.174194,-3.105408 -51.353607,41.202209 -61.706055,71.483215c-9.309692,27.236053 -15.49762,54.562012 -9.896484,95.608948c2.517029,18.441223 71.800293,533.208374 72.968933,541.187622c11.668213,79.740295 -33.933899,112.736145 -80.485596,118.605408c-100.52533,12.67334 -132.780701,-89.483154 -87.726135,-128.281189c34.68573,-29.872375 85.148621,-4.226624 82.422424,44.884583c-2.414032,43.498657 -45.065979,44.780029 -55.964386,43.786255c16.730011,30.004761 142.855316,45.680542 123.488983,-89.880249c-2.721313,-19.049316 -66.743347,-502.795044 -68.312378,-513.619812c-11.744995,-81.038086 -13.534668,-145.182739 28.687439,-220.037781c15.587463,-27.63324 40.221497,-45.472961 52.314636,-43.13739c2.657593,0.513184 5.305359,1.489014 7.407227,3.657837c32.387817,33.371704 42.323486,107.375214 38.775146,149.886627c-3.633362,43.528015 -5.658386,88.589111 -48.939636,141.137512c-16.749573,20.335541 -67.861359,65.133514 -97.166595,90.870758c-41.176056,36.161682 -71.041901,67.7453 -87.201447,105.847046c-18.160095,42.82196 -21.234467,96.726929 19.783081,144.556763c23.594543,27.02356 62.74231,46.198608 95.689056,46.6073c91.609528,1.137512 118.361786,-44.02002 119.216583,-95.159607c1.407227,-84.207153 -100.25238,-116.044128 -142.047913,-58.144653c-24.233582,33.572693 -13.582092,68.908997 2.693542,85.720703c5.586487,5.769531 11.826721,10.16449 17.730286,12.614502c2.139435,0.887451 7.171844,3.227966 5.743347,6.653748c-1.188232,2.850403 -3.496033,3.01062 -5.5979,2.758911c-26.35675,-3.161011 -55.541077,-28.354004 -62.717773,-71.687561c-10.457092,-63.159058 45.278412,-138.081116 124.837341,-125.82782c52.085876,8.02179 100.445313,52.839294 96.203979,136.294739c-3.636597,71.525635 -62.933594,127.512939 -151.962402,122.338318z" id="clef"/>
 </g>
</svg>