<?xml version="1.0" encoding="UTF-8" standalone="no"?>
<svg
   xmlns:dc="http://purl.org/dc/elements/1.1/"
   xmlns:cc="http://creativecommons.org/ns#"
   xmlns:rdf="http://www.w3.org/1999/02/22-rdf-syntax-ns#"
   xmlns:svg="http://www.w3.org/2000/svg"
   xmlns="http://www.w3.org/2000/svg"
   xmlns:sodipodi="http://sodipodi.sourceforge.net/DTD/sodipodi-0.dtd"
   xmlns:inkscape="http://www.inkscape.org/namespaces/inkscape"
   width="1200"
   height="1200"
   id="svg3058"
   version="1.1"
   inkscape:version="0.48.2 r9819"
   sodipodi:docname="clef_sol_grey.svg">
  <metadata
     id="metadata3071">
    <rdf:RDF>
      <cc:Work
         rdf:about="">
        <dc:format>image/svg+xml</dc:format>
        <dc:type
           rdf:resource="http://purl.org/dc/dcmitype/StillImage" />
        <dc:title>clef</dc:title>
      </cc:Work>
    </rdf:RDF>
  </metadata>
  <defs
     id="defs3069" />
  <sodipodi:namedview
     pagecolor="#ffffff"
     bordercolor="#666666"
     borderopacity="1"
     objecttolerance="10"
     gridtolerance="10"
     guidetolerance="10"
     inkscape:pageopacity="0"
     inkscape:pageshadow="2"
     inkscape:window-width="1366"
     inkscape:window-height="746"
     id="namedview3067"
     showgrid="false"
     inkscape:zoom="0.46416667"
     inkscape:cx="600"
     inkscape:cy="600"
     inkscape:window-x="-8"
     inkscape:window-y="-8"
     inkscape:window-maximized="1"
     inkscape:current-layer="svg3058" />
  <title
     id="title3060">clef</title>
  <g
     id="g3062">
    <title
       id="title3064">Layer 1</title>
    <path
       transform="rotate(-0.027732 286.198 538.886)"
       fill="black"
       d="m293.314575,783.429871c-46.651367,-2.711487 -94.281799,-31.972595 -122.768188,-65.556763c-33.026825,-38.938599 -46.643219,-91.879272 -43.155365,-135.354919c10.246216,-127.743408 149.164185,-203.245728 200.588104,-259.045013c34.421021,-37.349884 41.636963,-55.557373 49.325317,-74.766754c14.884705,-37.183197 17.282471,-80.748779 -12.227173,-84.001282c-28.174194,-3.105408 -51.353607,41.202209 -61.706055,71.483215c-9.309692,27.236053 -15.49762,54.562012 -9.896484,95.608948c2.517029,18.441223 71.800293,533.208374 72.968933,541.187622c11.668213,79.740295 -33.933899,112.736145 -80.485596,118.605408c-100.52533,12.67334 -132.780701,-89.483154 -87.726135,-128.281189c34.68573,-29.872375 85.148621,-4.226624 82.422424,44.884583c-2.414032,43.498657 -45.065979,44.780029 -55.964386,43.786255c16.730011,30.004761 142.855316,45.680542 123.488983,-89.880249c-2.721313,-19.049316 -66.743347,-502.795044 -68.312378,-513.619812c-11.744995,-81.038086 -13.534668,-145.182739 28.687439,-220.037781c15.587463,-27.63324 40.221497,-45.472961 52.314636,-43.13739c2.657593,0.513184 5.305359,1.489014 7.407227,3.657837c32.387817,33.371704 42.323486,107.375214 38.775146,149.886627c-3.633362,43.528015 -5.658386,88.589111 -48.939636,141.137512c-16.749573,20.335541 -67.861359,65.133514 -97.166595,90.870758c-41.176056,36.161682 -71.041901,67.7453 -87.201447,105.847046c-18.160095,42.82196 -21.234467,96.726929 19.783081,144.556763c23.594543,27.02356 62.74231,46.198608 95.689056,46.6073c91.609528,1.137512 118.361786,-44.02002 119.216583,-95.159607c1.407227,-84.207153 -100.25238,-116.044128 -142.047913,-58.144653c-24.233582,33.572693 -13.582092,68.908997 2.693542,85.720703c5.586487,5.769531 11.826721,10.16449 17.730286,12.614502c2.139435,0.887451 7.171844,3.227966 5.743347,6.653748c-1.188232,2.850403 -3.496033,3.01062 -5.5979,2.758911c-26.35675,-3.161011 -55.541077,-28.354004 -62.717773,-71.687561c-10.457092,-63.159058 45.278412,-138.081116 124.837341,-125.82782c52.085876,8.02179 100.445313,52.839294 96.203979,136.294739c-3.636597,71.525635 -62.933594,127.512939 -151.962402,122.338318z"
       id="clef" />
  </g>
  <path
     style="fill:#e6e6e6"
     d="m 237.77331,986.34032 c -23.97262,-8.24643 -40.32324,-22.70361 -50.69576,-44.82504 -4.82711,-10.29477 -5.67273,-15.01107 -5.64741,-31.49733 0.0328,-21.39152 2.65327,-28.79103 14.7536,-41.66096 20.70796,-22.025 50.18106,-21.39031 70.885,1.52648 4.29887,4.75833 8.94557,12.82673 10.32601,17.92981 3.25074,12.017 1.39025,32.14082 -3.79179,41.01371 -6.44456,11.03462 -20.00113,19.34247 -33.34375,20.43404 -17.34225,1.41878 -18.29677,2.02512 -12.65003,8.0358 9.71263,10.33862 24.94697,15.06856 48.58472,15.08448 19.14863,0.0129 22.90008,-0.646 33.74082,-5.92634 14.6685,-7.14479 26.19733,-19.35202 33.72708,-35.71168 8.43136,-18.31861 8.71518,-50.75563 0.93533,-106.90128 l -5.97052,-43.08797 -26.90756,0.66985 c -21.8602,0.54422 -30.14056,-0.17147 -44.14275,-3.81529 -23.70758,-6.16951 -48.52786,-18.95662 -69.74285,-35.93072 -30.08828,-24.07359 -50.24662,-54.1275 -61.93752,-92.34215 -5.31452,-17.37187 -5.94295,-22.75248 -6.03895,-51.70557 -0.11178,-33.70854 1.40044,-42.38378 12.20512,-70.01795 6.24306,-15.96731 22.36977,-43.82493 35.07769,-60.59393 13.39431,-17.67475 54.10529,-57.9188 83.55114,-82.59285 15.14852,-12.69365 22.71213,-20.44367 22.0771,-22.62119 -3.25205,-11.15127 -8.24173,-68.44057 -8.26318,-94.87426 -0.0405,-49.94896 7.81338,-83.75497 29.28023,-126.03231 12.65747,-24.92793 33.48726,-48.082944 47.35608,-52.642427 10.61065,-3.488338 16.09917,-0.07891 26.83857,16.671937 21.43911,33.43978 32.18057,93.61157 26.56507,148.81288 -6.99523,68.76412 -22.30777,100.7556 -71.41768,149.20828 l -27.59049,27.22126 6.31452,46.0283 c 3.47298,25.31558 6.32329,46.75542 6.33402,47.64411 0.0108,0.88869 6.56348,1.6273 14.56169,1.64137 51.129,0.0898 93.92227,35.25898 107.44813,88.30477 4.3873,17.20626 4.91674,52.7269 1.02756,68.94075 -8.5931,35.82421 -33.35851,67.04265 -66.1379,83.37122 -9.59574,4.77997 -18.60927,9.07834 -20.03007,9.55194 -1.92429,0.64143 -0.56736,15.69113 5.31921,58.9959 9.06101,66.65752 8.74901,81.60825 -2.2122,106.01065 -10.15067,22.59791 -34.70161,41.63071 -61.74172,47.86446 -16.09595,3.71072 -44.5979,2.64991 -58.64656,-2.18275 l 0,0 z M 321.94369,766.9834 c 6.20368,-0.88377 11.9238,-2.25126 12.71137,-3.03882 2.27918,-2.27918 -21.40007,-176.39037 -24.13178,-177.43863 -1.3214,-0.50706 -7.74594,1.07728 -14.27675,3.52076 -14.84154,5.55294 -29.61759,19.75603 -37.72164,36.25893 -5.17901,10.54643 -6.02511,14.86083 -5.99915,30.59048 0.0258,15.63945 0.87039,19.91302 5.78623,29.27832 6.0176,11.46429 16.63719,22.1562 27.67624,27.86471 8.14018,4.20944 6.20507,8.26023 -2.99762,6.27495 -18.07467,-3.89925 -38.10227,-20.92499 -47.70704,-40.55645 -3.11157,-6.3598 -7.17831,-19.28324 -9.03721,-28.71876 -3.08607,-15.6645 -3.07787,-18.63636 0.0943,-34.19489 7.46567,-36.6165 30.41436,-66.64658 62.61761,-81.93983 12.18416,-5.78625 16.19448,-8.71425 15.49056,-11.30993 -0.5224,-1.92633 -3.13734,-20.95306 -5.81096,-42.2816 -2.67363,-21.32855 -5.1404,-39.1418 -5.48172,-39.58501 -1.15644,-1.50161 -53.47994,46.41954 -73.15459,66.99958 -40.83254,42.71158 -59.11284,81.8604 -59.03614,126.43094 0.0649,37.69649 11.84591,65.96295 38.77628,93.03661 17.53075,17.62403 40.92882,31.14993 64.603,37.34555 12.82218,3.3556 39.54913,4.03452 57.59899,1.46309 l 0,0 z m 41.03636,-11.89072 c 15.41414,-7.87952 26.99099,-18.98153 34.28863,-32.88225 9.3862,-17.879 12.14751,-32.10071 10.95695,-56.43207 -0.82272,-16.81401 -2.14027,-23.12131 -6.94382,-33.24145 -11.18445,-23.56341 -35.12027,-41.79964 -61.34327,-46.73618 -6.4126,-1.20718 -12.04226,-1.81192 -12.51035,-1.34383 -0.79799,0.79801 19.65772,157.04908 22.24332,169.90576 0.65533,3.25852 1.63144,5.92459 2.16914,5.92459 0.53769,0 5.55044,-2.33756 11.1394,-5.19457 l 0,0 z m -40.5239,-425.14654 c 36.23755,-36.85948 56.12763,-70.96099 64.05127,-109.81583 7.89876,-38.73292 -6.87001,-62.78971 -33.62611,-54.77339 -24.00549,7.19222 -53.0043,60.4248 -60.61392,111.26786 -3.50335,23.40732 0.0512,76.48114 5.12215,76.48114 1.26368,0 12.54365,-10.4219 25.06661,-23.15978 z"
     id="path3073"
     inkscape:connector-curvature="0" />
</svg>
