<?xml version="1.0" encoding="UTF-8" standalone="no"?>
<!-- Created with Inkscape (http://www.inkscape.org/) -->

<svg
   xmlns:dc="http://purl.org/dc/elements/1.1/"
   xmlns:cc="http://creativecommons.org/ns#"
   xmlns:rdf="http://www.w3.org/1999/02/22-rdf-syntax-ns#"
   xmlns:svg="http://www.w3.org/2000/svg"
   xmlns="http://www.w3.org/2000/svg"
   xmlns:xlink="http://www.w3.org/1999/xlink"
   xmlns:sodipodi="http://sodipodi.sourceforge.net/DTD/sodipodi-0.dtd"
   xmlns:inkscape="http://www.inkscape.org/namespaces/inkscape"
   height="100"
   id="svg1"
   inkscape:version="0.48.2 r9819"
   sodipodi:docname="Bass_clef_grey10_70x100.svg"
   sodipodi:version="0.32"
   width="70"
   version="1.0">
  <metadata
     id="metadata3">
    <rdf:RDF>
      <cc:Work
         rdf:about="">
        <dc:title></dc:title>
        <dc:description />
        <dc:subject>
          <rdf:Bag>
            <rdf:li />
            <rdf:li>symbol</rdf:li>
            <rdf:li>musicsym</rdf:li>
            <rdf:li>music</rdf:li>
            <rdf:li>recreation</rdf:li>
          </rdf:Bag>
        </dc:subject>
        <dc:publisher>
          <cc:Agent
             rdf:about="http://www.openclipart.org">
            <dc:title>Jonadab the Unsightly One</dc:title>
          </cc:Agent>
        </dc:publisher>
        <dc:creator>
          <cc:Agent>
            <dc:title>Jonadab the Unsightly One</dc:title>
          </cc:Agent>
        </dc:creator>
        <dc:rights>
          <cc:Agent>
            <dc:title>Jonadab the Unsightly One</dc:title>
          </cc:Agent>
        </dc:rights>
        <dc:date />
        <dc:format>image/svg+xml</dc:format>
        <dc:type
           rdf:resource="http://purl.org/dc/dcmitype/StillImage" />
        <cc:license
           rdf:resource="http://web.resource.org/cc/PublicDomain" />
        <dc:language>en</dc:language>
      </cc:Work>
      <cc:License
         rdf:about="http://web.resource.org/cc/PublicDomain">
        <cc:permits
           rdf:resource="http://web.resource.org/cc/Reproduction" />
        <cc:permits
           rdf:resource="http://web.resource.org/cc/Distribution" />
        <cc:permits
           rdf:resource="http://web.resource.org/cc/DerivativeWorks" />
      </cc:License>
    </rdf:RDF>
  </metadata>
  <defs
     id="defs3">
    <linearGradient
       id="linearGradient830">
      <stop
         id="stop831"
         offset="0"
         style="stop-color:#000;stop-opacity:1;" />
      <stop
         id="stop832"
         offset="1"
         style="stop-color:#fff;stop-opacity:1;" />
    </linearGradient>
    <radialGradient
       id="radialGradient833"
       xlink:href="#linearGradient830" />
    <linearGradient
       id="linearGradient834"
       x1="-1.0164395e-018"
       x2="1"
       xlink:href="#linearGradient830"
       y1="0.5"
       y2="0.5" />
  </defs>
  <sodipodi:namedview
     bordercolor="#666666"
     borderopacity="1.0"
     id="base"
     inkscape:cx="41.846668"
     inkscape:cy="51.142475"
     inkscape:pageopacity="0.0000000"
     inkscape:pageshadow="2"
     inkscape:window-height="716"
     inkscape:window-width="1366"
     inkscape:window-x="-8"
     inkscape:window-y="-8"
     inkscape:zoom="4.9119412"
     pagecolor="#a2a2a2"
     showgrid="false"
     snaptogrid="false"
     inkscape:current-layer="g869"
     inkscape:window-maximized="1" />
  <g
     id="g869"
     transform="translate(-80.59801,-285.99372)">
    <path
       style="fill:#cccccc;fill-opacity:0.75;fill-rule:evenodd;stroke:#000000;stroke-width:0.81043351;stroke-miterlimit:4;stroke-opacity:1;stroke-dasharray:none"
       d="m 106.08891,292.59532 c -15.110241,0.38229 -26.686265,11.69653 -22.934822,29.02441 0.0044,0.0204 0.02294,0.0382 0.02741,0.0587 0.44041,5.97603 5.092515,10.69013 10.796085,10.69013 5.994124,0 10.850887,-5.1912 10.850887,-11.59806 0,-5.64663 -3.76809,-10.355 -8.768397,-11.39302 -1.992627,-0.75357 -4.981155,-2.46706 -4.850017,-5.21326 0.06045,-1.36678 1.553253,-3.84587 3.945779,-5.09612 2.90781,-1.45855 5.906225,-2.24783 8.932795,-1.58155 4.5879,0.89523 16.32078,9.90005 17.23536,25.50985 0.52498,11.85177 -5.70345,27.85328 -11.78251,35.43847 -9.8001,11.95624 -25.54354,19.38299 -24.003477,20.70662 1.382276,1.32364 19.969627,-7.757 29.648127,-19.15436 11.81123,-13.67033 17.65834,-25.06524 17.09834,-38.92374 -0.3368,-13.8585 -10.37474,-28.86256 -26.19555,-28.46795 z"
       id="path861"
       inkscape:connector-curvature="0" />
    <path
       sodipodi:type="arc"
       style="fill:none;stroke:#000000;stroke-width:0.89399999;stroke-linecap:round;stroke-linejoin:round;stroke-miterlimit:4;stroke-opacity:1;stroke-dasharray:none;stroke-dashoffset:0"
       id="path2766"
       sodipodi:cx="107.08598"
       sodipodi:cy="36.472969"
       sodipodi:rx="9.7721043"
       sodipodi:ry="9.1613474"
       d="m 116.85809,36.472969 a 9.7721043,9.1613474 0 1 1 -19.544211,0 9.7721043,9.1613474 0 1 1 19.544211,0 z"
       transform="matrix(0.64420571,0,0,0.64420571,71.730355,310.1736)" />
    <path
       style="fill:#e6e6e6"
       d="m 138.07276,338.64166 c -1.3941,-0.60675 -2.96801,-2.60004 -3.23516,-4.09722 -0.66413,-3.72188 3.4357,-7.23068 7.25844,-6.21206 5.14362,1.37057 6.08027,7.7379 1.48326,10.08311 -1.71745,0.87618 -3.81509,0.96233 -5.50654,0.22617 l 0,0 z"
       id="path3103"
       inkscape:connector-curvature="0" />
    <path
       style="fill:#e6e6e6"
       d="m 87.993849,377.59085 c 0.272091,-0.28416 2.275658,-1.7801 4.452376,-3.32435 8.578555,-6.08593 15.109035,-11.9493 18.389855,-16.51129 6.36287,-8.84757 11.05291,-23.08969 11.02946,-33.49278 -0.011,-4.85158 -0.62091,-7.50787 -2.93985,-12.80259 -1.49597,-3.41567 -2.70307,-5.20744 -5.53876,-8.22151 -1.99426,-2.11968 -4.73901,-4.44669 -6.09946,-5.17113 -8.157113,-4.34363 -20.509381,3.04036 -15.459632,9.24151 0.612202,0.75181 2.448358,1.94362 4.080347,2.64849 5.488555,2.37058 8.129345,5.85239 8.152815,10.74931 0.0392,8.17056 -7.894522,13.30181 -14.739312,9.5329 -4.311634,-2.37407 -6.337023,-8.05626 -5.924376,-16.62069 0.374357,-7.76972 4.361067,-13.85628 11.427886,-17.44711 12.410882,-6.30628 26.123622,-1.70851 33.012432,11.06878 3.56127,6.60545 4.71304,16.89555 2.76429,24.6972 -3.09963,12.40924 -14.91305,28.80671 -26.77741,37.16806 -6.444569,4.54178 -17.969985,10.71938 -15.830661,8.4852 z"
       id="path3105"
       inkscape:connector-curvature="0" />
    <path
       sodipodi:type="arc"
       style="fill:none;stroke:#000000;stroke-width:0.89399999;stroke-linecap:round;stroke-linejoin:round;stroke-miterlimit:4;stroke-opacity:1;stroke-dasharray:none;stroke-dashoffset:0"
       id="path2766-7"
       sodipodi:cx="107.08598"
       sodipodi:cy="36.472969"
       sodipodi:rx="9.7721043"
       sodipodi:ry="9.1613474"
       d="m 116.85809,36.472969 a 9.7721043,9.1613474 0 1 1 -19.544211,0 9.7721043,9.1613474 0 1 1 19.544211,0 z"
       transform="matrix(0.64420571,0,0,0.64420571,71.696465,286.57546)" />
    <path
       style="fill:#e6e6e6"
       d="m 138.03886,315.04352 c -1.3941,-0.60676 -2.96801,-2.60005 -3.23516,-4.09722 -0.66413,-3.72188 3.4357,-7.23068 7.25844,-6.21206 5.14362,1.37057 6.08027,7.7379 1.48326,10.08311 -1.71745,0.87618 -3.81509,0.96233 -5.50654,0.22617 l 0,0 z"
       id="path3103-4"
       inkscape:connector-curvature="0" />
  </g>
</svg>
