<?xml version="1.0" encoding="UTF-8" standalone="no"?>
<svg
   xmlns:dc="http://purl.org/dc/elements/1.1/"
   xmlns:cc="http://creativecommons.org/ns#"
   xmlns:rdf="http://www.w3.org/1999/02/22-rdf-syntax-ns#"
   xmlns:svg="http://www.w3.org/2000/svg"
   xmlns="http://www.w3.org/2000/svg"
   xmlns:sodipodi="http://sodipodi.sourceforge.net/DTD/sodipodi-0.dtd"
   xmlns:inkscape="http://www.inkscape.org/namespaces/inkscape"
   width="40"
   height="100"
   id="svg2"
   version="1.1"
   inkscape:version="0.48.2 r9819"
   sodipodi:docname="clef_sol_40x100.svg">
  <metadata
     id="metadata15">
    <rdf:RDF>
      <cc:Work
         rdf:about="">
        <dc:format>image/svg+xml</dc:format>
        <dc:type
           rdf:resource="http://purl.org/dc/dcmitype/StillImage" />
        <dc:title>clef</dc:title>
      </cc:Work>
    </rdf:RDF>
  </metadata>
  <defs
     id="defs13" />
  <sodipodi:namedview
     pagecolor="#ffffff"
     bordercolor="#666666"
     borderopacity="1"
     objecttolerance="10"
     gridtolerance="10"
     guidetolerance="10"
     inkscape:pageopacity="0"
     inkscape:pageshadow="2"
     inkscape:window-width="1366"
     inkscape:window-height="716"
     id="namedview11"
     showgrid="false"
     inkscape:zoom="4.4500587"
     inkscape:cx="77.035424"
     inkscape:cy="51.579536"
     inkscape:window-x="-8"
     inkscape:window-y="-8"
     inkscape:window-maximized="1"
     inkscape:current-layer="svg2" />
  <title
     id="title4">clef</title>
  <g
     id="g6"
     transform="matrix(0.11942978,0,0,0.1098493,-15.027342,-8.8573905)">
    <title
       id="title8">Layer 1</title>
    <path
       transform="matrix(0.99999988,-4.8401469e-4,4.8401469e-4,0.99999988,-0.26079522,0.13858716)"
       d="m 293.31457,783.42987 c -46.65136,-2.71149 -94.28179,-31.97259 -122.76818,-65.55676 -33.02683,-38.9386 -46.64322,-91.87927 -43.15537,-135.35492 10.24622,-127.74341 149.16419,-203.24573 200.58811,-259.04501 34.42102,-37.34989 41.63696,-55.55738 49.32531,-74.76676 14.88471,-37.18319 17.28247,-80.74878 -12.22717,-84.00128 -28.17419,-3.10541 -51.35361,41.20221 -61.70606,71.48322 -9.30969,27.23605 -15.49762,54.56201 -9.89648,95.60894 2.51703,18.44123 71.80029,533.20838 72.96893,541.18763 11.66822,79.74029 -33.9339,112.73614 -80.48559,118.6054 -100.52533,12.67337 -132.7807,-89.48315 -87.72614,-128.28119 34.68573,-29.87237 85.14862,-4.22662 82.42243,44.88459 -2.41404,43.49865 -45.06598,44.78003 -55.96439,43.78625 16.73001,30.00476 142.85532,45.68054 123.48898,-89.88025 -2.72131,-19.04931 -66.74334,-502.79504 -68.31237,-513.61981 -11.745,-81.03809 -13.53467,-145.18274 28.68743,-220.03778 15.58747,-27.63324 40.2215,-45.472961 52.31464,-43.13739 2.65759,0.513184 5.30536,1.489014 7.40723,3.657837 32.38781,33.371703 42.32348,107.375213 38.77514,149.886623 -3.63336,43.52802 -5.65838,88.58911 -48.93963,141.13752 -16.74958,20.33554 -67.86136,65.13351 -97.1666,90.87075 -41.17605,36.16169 -71.0419,67.7453 -87.20144,105.84705 -18.1601,42.82196 -21.23447,96.72693 19.78308,144.55676 23.59454,27.02356 62.74231,46.19861 95.68905,46.6073 91.60953,1.13752 118.36179,-44.02002 119.21659,-95.1596 1.40722,-84.20716 -100.25238,-116.04413 -142.04792,-58.14466 -24.23358,33.5727 -13.58209,68.909 2.69354,85.72071 5.58649,5.76953 11.82673,10.16449 17.73029,12.6145 2.13944,0.88745 7.17184,3.22796 5.74335,6.65375 -1.18823,2.8504 -3.49604,3.01062 -5.5979,2.75891 -26.35675,-3.16101 -55.54108,-28.35401 -62.71777,-71.68756 -10.4571,-63.15906 45.27841,-138.08112 124.83734,-125.82782 52.08587,8.02179 100.44531,52.83929 96.20398,136.29474 -3.6366,71.52563 -62.9336,127.51293 -151.96241,122.33831 z"
       id="clef"
       inkscape:connector-curvature="0"
       style="fill:#000000" />
  </g>
  <path
     style="fill:#e6e6e6;fill-opacity:1"
     d="M 13.720768,99.625681 C 10.884698,98.830275 8.6745294,97.124586 7.4127927,94.757522 6.7806289,93.571561 6.6424031,93.0471 6.5628792,91.532751 6.4432267,89.254249 6.976447,87.861105 8.5212482,86.416125 c 4.3103338,-4.031812 11.0457238,-0.213986 9.6783248,5.48597 -0.505465,2.107019 -2.234461,3.301195 -5.348988,3.694419 l -1.196906,0.151114 0.488688,0.520185 c 1.160422,1.235213 4.492212,1.996528 7.254013,1.657544 4.154041,-0.509867 6.736342,-3.109321 7.350877,-7.399702 0.277026,-1.934065 0.197921,-2.958606 -0.697772,-9.037427 -0.359607,-2.440548 -0.65383,-4.462993 -0.65383,-4.494323 0,-0.03133 -1.744359,-0.06111 -3.876353,-0.06617 -3.641128,-0.0086 -3.992262,-0.04776 -5.786441,-0.644533 C 12.042384,75.055695 9.1860168,73.372443 6.5480028,70.870586 3.6620325,68.13357 1.9073457,65.17913 0.86635355,61.304152 0.15026744,58.638601 0.15135666,54.784472 0.86895313,52.105808 1.5313819,49.633075 3.0250643,46.598267 4.749047,44.222377 6.6501021,41.602457 10.90917,37.464574 15.138525,34.128517 l 3.561105,-2.808951 -0.132238,-1.235939 c -0.07273,-0.679767 -0.288558,-2.398845 -0.479618,-3.820175 -0.418094,-3.110293 -0.46838,-8.284484 -0.101552,-10.4493 1.088259,-6.4223156 4.40794,-12.468404 7.971223,-14.5178782 1.627538,-0.9361022 2.361228,-0.86975035 3.367933,0.3045824 3.224165,3.7610156 4.716543,10.5597708 3.923436,17.8737898 -0.795218,7.333473 -3.150954,11.462437 -9.792879,17.164238 -1.03425,0.887858 -1.881654,1.773305 -1.88312,1.96766 -0.0015,0.194352 0.319413,2.552779 0.713065,5.240946 l 0.71573,4.887576 1.318855,0 c 1.971398,0 4.574847,0.607774 6.468377,1.510041 1.259242,0.600028 2.116923,1.235076 3.392187,2.51165 2.738609,2.741425 3.789249,5.497235 3.795408,9.955289 0.0062,4.478119 -1.531182,7.722438 -5.055081,10.667765 -1.144936,0.956954 -3.766748,2.38351 -4.906129,2.669477 -0.348384,0.08744 -0.687856,0.300828 -0.754385,0.474198 -0.06653,0.173371 0.246378,2.814819 0.695348,5.869883 1.085934,7.389356 1.047737,9.754123 -0.1968,12.18379 -1.088368,2.124783 -3.128851,3.787248 -5.796773,4.722874 -1.869329,0.655565 -6.423865,0.835517 -8.241849,0.325648 l 0,0 z m 9.721989,-24.278444 c 1.754752,-0.136504 1.754907,-0.136574 1.635997,-0.73406 -0.06541,-0.32865 -0.681207,-4.541313 -1.368443,-9.361475 -0.687238,-4.820161 -1.301889,-9.003124 -1.365892,-9.295473 -0.101163,-0.462083 -0.208554,-0.513105 -0.821833,-0.390448 -3.394261,0.678851 -6.172707,3.761249 -6.412603,7.114115 -0.205502,2.872155 1.001443,5.152244 3.462523,6.54119 1.444609,0.815288 1.558927,1.193344 0.310202,1.025856 -4.052781,-0.543593 -7.559454,-5.599209 -7.096634,-10.231317 0.447217,-4.475952 3.597927,-8.506368 8.062349,-10.313432 0.764491,-0.309443 1.415813,-0.58677 1.447382,-0.616284 0.100236,-0.09371 -1.252461,-9.148801 -1.386758,-9.283098 -0.0707,-0.0707 -0.306124,0.02198 -0.523171,0.205966 -0.217047,0.183977 -1.860904,1.554125 -3.653015,3.044773 C 7.718815,49.719494 4.6750556,54.191958 4.1383011,60.090467 3.4836407,67.284669 9.9077502,74.423622 17.96015,75.450348 c 1.447937,0.18462 1.890988,0.176287 5.482607,-0.103111 z m 5.244641,-1.457887 c 2.174331,-1.137767 4.009979,-3.214856 4.588304,-5.19179 1.393548,-4.763692 0.0768,-9.160955 -3.438258,-11.482017 -1.918319,-1.266702 -5.790086,-2.390096 -5.790086,-1.679993 0,0.158964 0.606734,4.413335 1.348297,9.454154 0.741563,5.040821 1.348297,9.260212 1.348297,9.376424 0,0.374072 0.59761,0.227465 1.943446,-0.476778 l 0,0 z M 22.461152,28.306142 c 4.364956,-3.777584 6.808328,-7.145675 8.197101,-11.299384 1.11657,-3.339566 0.975129,-5.673838 -0.428864,-7.0778312 -0.657,-0.6569998 -0.884343,-0.7438027 -1.946132,-0.743061 -2.835257,0.00198 -5.480703,3.0494942 -7.411883,8.5383732 -1.105216,3.14129 -1.450674,7.33982 -0.878266,10.674017 0.12731,0.741563 0.232058,1.430107 0.232774,1.530096 0.0019,0.264738 0.330371,0.02635 2.23527,-1.62221 z"
     id="path2992"
     inkscape:connector-curvature="0" />
</svg>
