<?xml version="1.0" encoding="UTF-8" standalone="no"?>
<svg
   xmlns:dc="http://purl.org/dc/elements/1.1/"
   xmlns:cc="http://creativecommons.org/ns#"
   xmlns:rdf="http://www.w3.org/1999/02/22-rdf-syntax-ns#"
   xmlns:svg="http://www.w3.org/2000/svg"
   xmlns="http://www.w3.org/2000/svg"
   xmlns:sodipodi="http://sodipodi.sourceforge.net/DTD/sodipodi-0.dtd"
   xmlns:inkscape="http://www.inkscape.org/namespaces/inkscape"
   width="40"
   height="100"
   id="svg2"
   version="1.1"
   inkscape:version="0.48.2 r9819"
   sodipodi:docname="clef_sol.svg">
  <metadata
     id="metadata15">
    <rdf:RDF>
      <cc:Work
         rdf:about="">
        <dc:format>image/svg+xml</dc:format>
        <dc:type
           rdf:resource="http://purl.org/dc/dcmitype/StillImage" />
        <dc:title>clef</dc:title>
      </cc:Work>
    </rdf:RDF>
  </metadata>
  <defs
     id="defs13" />
  <sodipodi:namedview
     pagecolor="#ffffff"
     bordercolor="#666666"
     borderopacity="1"
     objecttolerance="10"
     gridtolerance="10"
     guidetolerance="10"
     inkscape:pageopacity="0"
     inkscape:pageshadow="2"
     inkscape:window-width="1366"
     inkscape:window-height="716"
     id="namedview11"
     showgrid="false"
     inkscape:zoom="4.4500587"
     inkscape:cx="77.035424"
     inkscape:cy="51.579536"
     inkscape:window-x="-8"
     inkscape:window-y="-8"
     inkscape:window-maximized="1"
     inkscape:current-layer="svg2" />
  <title
     id="title4">clef</title>
  <g
     id="g6"
     transform="matrix(0.11942978,0,0,0.1098493,-15.027342,-8.8573905)">
    <title
       id="title8">Layer 1</title>
    <path
       transform="matrix(0.99999988,-4.8401469e-4,4.8401469e-4,0.99999988,-0.26079522,0.13858716)"
       d="m 293.31457,783.42987 c -46.65136,-2.71149 -94.28179,-31.97259 -122.76818,-65.55676 -33.02683,-38.9386 -46.64322,-91.87927 -43.15537,-135.35492 10.24622,-127.74341 149.16419,-203.24573 200.58811,-259.04501 34.42102,-37.34989 41.63696,-55.55738 49.32531,-74.76676 14.88471,-37.18319 17.28247,-80.74878 -12.22717,-84.00128 -28.17419,-3.10541 -51.35361,41.20221 -61.70606,71.48322 -9.30969,27.23605 -15.49762,54.56201 -9.89648,95.60894 2.51703,18.44123 71.80029,533.20838 72.96893,541.18763 11.66822,79.74029 -33.9339,112.73614 -80.48559,118.6054 -100.52533,12.67337 -132.7807,-89.48315 -87.72614,-128.28119 34.68573,-29.87237 85.14862,-4.22662 82.42243,44.88459 -2.41404,43.49865 -45.06598,44.78003 -55.96439,43.78625 16.73001,30.00476 142.85532,45.68054 123.48898,-89.88025 -2.72131,-19.04931 -66.74334,-502.79504 -68.31237,-513.61981 -11.745,-81.03809 -13.53467,-145.18274 28.68743,-220.03778 15.58747,-27.63324 40.2215,-45.472961 52.31464,-43.13739 2.65759,0.513184 5.30536,1.489014 7.40723,3.657837 32.38781,33.371703 42.32348,107.375213 38.77514,149.886623 -3.63336,43.52802 -5.65838,88.58911 -48.93963,141.13752 -16.74958,20.33554 -67.86136,65.13351 -97.1666,90.87075 -41.17605,36.16169 -71.0419,67.7453 -87.20144,105.84705 -18.1601,42.82196 -21.23447,96.72693 19.78308,144.55676 23.59454,27.02356 62.74231,46.19861 95.68905,46.6073 91.60953,1.13752 118.36179,-44.02002 119.21659,-95.1596 1.40722,-84.20716 -100.25238,-116.04413 -142.04792,-58.14466 -24.23358,33.5727 -13.58209,68.909 2.69354,85.72071 5.58649,5.76953 11.82673,10.16449 17.73029,12.6145 2.13944,0.88745 7.17184,3.22796 5.74335,6.65375 -1.18823,2.8504 -3.49604,3.01062 -5.5979,2.75891 -26.35675,-3.16101 -55.54108,-28.35401 -62.71777,-71.68756 -10.4571,-63.15906 45.27841,-138.08112 124.83734,-125.82782 52.08587,8.02179 100.44531,52.83929 96.20398,136.29474 -3.6366,71.52563 -62.9336,127.51293 -151.96241,122.33831 z"
       id="clef"
       inkscape:connector-curvature="0"
       style="fill:#000000" />
  </g>
</svg>
