<?xml version="1.0" encoding="UTF-8" standalone="no"?>
<svg
   xmlns:dc="http://purl.org/dc/elements/1.1/"
   xmlns:cc="http://creativecommons.org/ns#"
   xmlns:rdf="http://www.w3.org/1999/02/22-rdf-syntax-ns#"
   xmlns:svg="http://www.w3.org/2000/svg"
   xmlns="http://www.w3.org/2000/svg"
   xmlns:sodipodi="http://sodipodi.sourceforge.net/DTD/sodipodi-0.dtd"
   xmlns:inkscape="http://www.inkscape.org/namespaces/inkscape"
   xml:space="preserve"
   version="1.0"
   id="layer1"
   width="400pt"
   height="400pt"
   viewBox="0 0 75 75"
   inkscape:version="0.48.2 r9819"
   sodipodi:docname="Speaker_Icon_grey10.svg"><defs
   id="defs12" /><sodipodi:namedview
   pagecolor="#ffffff"
   bordercolor="#666666"
   borderopacity="1"
   objecttolerance="10"
   gridtolerance="10"
   guidetolerance="10"
   inkscape:pageopacity="0"
   inkscape:pageshadow="2"
   inkscape:window-width="1366"
   inkscape:window-height="746"
   id="namedview10"
   showgrid="false"
   inkscape:zoom="0.472"
   inkscape:cx="250"
   inkscape:cy="250"
   inkscape:window-x="-8"
   inkscape:window-y="-8"
   inkscape:window-maximized="1"
   inkscape:current-layer="layer1" /><metadata
   id="metadata1"><rdf:RDF><cc:Work
       rdf:about=""><dc:format>image/svg+xml</dc:format><dc:type
         rdf:resource="http://purl.org/dc/dcmitype/StillImage" /><dc:title></dc:title></cc:Work></rdf:RDF></metadata><g
   id="g1"><polygon
   id="polygon1"
   points="39.389,13.769 22.235,28.606 6,28.606 6,47.699 21.989,47.699 39.389,62.75 39.389,13.769"
   style="stroke:#111111;stroke-width:5;stroke-linejoin:round;fill:#111111;" /><path
   id="path1"
   d="M 48.128,49.03 C 50.057,45.934 51.19,42.291 51.19,38.377 C 51.19,34.399 50.026,30.703 48.043,27.577"
   style="fill:none;stroke:#111111;stroke-width:5;stroke-linecap:round" />
<path
   id="path2"
   d="M 55.082,20.537 C 58.777,25.523 60.966,31.694 60.966,38.377 C 60.966,44.998 58.815,51.115 55.178,56.076"
   style="fill:none;stroke:#111111;stroke-width:5;stroke-linecap:round" />
<path
   id="path8"
   d="M 61.71,62.611 C 66.977,55.945 70.128,47.531 70.128,38.378 C 70.128,29.161 66.936,20.696 61.609,14.01"
   style="fill:none;stroke:#111111;stroke-width:5;stroke-linecap:round" />
</g>
<path
   style="fill:#e6e6e6"
   d="m 246.90636,424.79576 c -5.6396,-4.54029 -31.70509,-26.91599 -57.92331,-49.72377 l -47.66949,-41.46871 -53.126454,-0.0643 -53.126453,-0.0644 -5.136259,-5.46729 -5.136258,-5.46731 0,-68.62639 c 0,-68.57515 0.0036,-68.63 4.822194,-73.4522 4.733153,-4.73669 5.830508,-4.83739 59.428992,-5.45338 l 54.606798,-0.62757 46.50321,-40.41504 c 25.57677,-22.22827 51.11743,-44.112172 56.75703,-48.630896 12.42192,-9.953076 20.29925,-10.73096 26.66868,-2.633532 4.35786,5.540127 4.39106,6.843284 4.39106,172.383778 0,165.54048 -0.0333,166.84364 -4.39106,172.38377 -6.38097,8.11207 -14.25252,7.3232 -26.66868,-2.67276 z"
   id="path2989"
   inkscape:connector-curvature="0"
   transform="scale(0.15,0.15)" /><path
   style="fill:#e6e6e6"
   d="m 310.70878,336.74885 c -6.69675,-6.69675 -6.54995,-10.10485 1.11168,-25.80914 8.98119,-18.40905 12.75959,-34.96141 12.73066,-55.77043 -0.0292,-21.02514 -3.63254,-36.40657 -12.62168,-53.87789 -7.83214,-15.22257 -8.04333,-21.04807 -1.01774,-28.07366 4.20093,-4.20093 6.67594,-5.09264 11.12288,-4.00741 7.73966,1.88879 11.63121,6.2225 19.32302,21.51855 19.57088,38.91896 19.94137,86.68937 0.99168,127.86544 -10.73155,23.31873 -20.736,29.05903 -31.6405,18.15454 l 0,0 z"
   id="path2991"
   inkscape:connector-curvature="0"
   transform="scale(0.15,0.15)" /><path
   style="fill:#e6e6e6"
   d="m 357.39051,384.29468 c -5.68029,-6.27663 -4.72437,-15.16174 2.91141,-27.06106 18.89338,-29.44278 27.62493,-56.51568 29.35012,-91.00244 2.04285,-40.83687 -6.21635,-73.89953 -26.96321,-107.93724 -5.8136,-9.53791 -10.57019,-19.35349 -10.57019,-21.81241 0,-5.99451 9.19069,-14.87136 15.39715,-14.87136 11.61386,0 32.85863,33.92493 44.62608,71.26163 14.73458,46.75102 12.22359,99.63259 -6.8911,145.12693 -8.18132,19.47212 -22.31223,43.15269 -28.21962,47.29038 -6.45825,4.52354 -15.04019,4.08903 -19.64064,-0.99443 l 0,0 z"
   id="path2993"
   inkscape:connector-curvature="0"
   transform="scale(0.15,0.15)" /><path
   style="fill:#0000ff"
   d="m 407.20339,431.5478 c -13.93726,-5.12464 -13.62016,-14.26615 1.27434,-36.73689 27.672,-41.74765 40.31345,-79.43703 42.60207,-127.0143 2.58955,-53.83333 -12.59037,-107.58126 -42.74846,-151.36056 -13.12095,-19.047158 -14.80155,-24.811455 -9.28033,-31.830554 5.40105,-6.866317 15.93846,-7.239088 22.84138,-0.808036 7.33,6.828928 27.02645,37.90829 35.05541,55.3145 40.8916,88.65012 32.95132,188.71582 -21.51269,271.1094 -12.93625,19.57006 -19.50773,24.53421 -28.23172,21.32644 z"
   id="path2995"
   inkscape:connector-curvature="0"
   transform="scale(0.15,0.15)" /><path
   style="fill:#0000ff"
   d="m 357.53539,381.73197 c -1.81396,-2.58977 -3.29215,-5.68828 -3.28488,-6.88559 0.007,-1.19729 6.07811,-14.23672 13.49075,-28.97653 18.45668,-36.7005 21.45366,-49.53076 21.45366,-91.84443 0,-40.41175 -2.75364,-51.47987 -22.46125,-90.28197 -6.87301,-13.5322 -12.49638,-26.16462 -12.49638,-28.07203 0,-5.15501 7.74626,-11.94261 13.62934,-11.94261 13.97526,0 41.00395,52.08069 48.95606,94.33182 4.75953,25.28828 3.32283,66.93963 -3.14061,91.04954 -5.48861,20.47361 -24.91989,61.23174 -33.64484,70.57182 -7.76533,8.31282 -17.49437,9.19915 -22.50185,2.04998 z"
   id="path2997"
   inkscape:connector-curvature="0"
   transform="scale(0.15,0.15)" /><path
   style="fill:#0000ff"
   d="m 311.86441,335.59322 c -5.74822,-5.74822 -5.45372,-8.16755 3.70762,-30.45766 7.92675,-19.28628 7.94492,-19.40071 7.94492,-50.05081 l 0,-30.72034 -7.94492,-18.09564 c -9.06362,-20.64365 -9.65986,-25.74026 -3.70762,-31.6925 9.34383,-9.34383 19.60068,-2.40003 29.85252,20.20992 17.28374,38.11846 16.74263,88.04521 -1.3459,124.18439 -10.29293,20.5643 -19.30809,25.82117 -28.50662,16.62264 z"
   id="path2999"
   inkscape:connector-curvature="0"
   transform="scale(0.15,0.15)" /><path
   style="fill:#000080"
   d="m 251.23911,426.22843 c -4.93428,-3.79741 -73.28808,-62.4329 -101.2347,-86.84148 l -6.57221,-5.74017 -53.09938,-0.0861 -53.099383,-0.0861 -5.804604,-6.05871 -5.804603,-6.05869 0.641275,-68.02119 c 0.583999,-61.94582 0.978928,-68.35882 4.421724,-71.80146 3.362746,-3.36261 9.864996,-3.92093 58.849004,-5.05317 51.041957,-1.1798 55.412977,-1.58204 59.778877,-5.50114 11.01234,-9.88535 96.34084,-82.760543 101.924,-87.048651 8.14072,-6.252442 17.21186,-6.13329 21.41485,0.28129 2.86428,4.371441 3.26013,25.118571 3.26013,170.871891 0,145.75332 -0.39585,166.50044 -3.26013,170.87188 -4.20523,6.41801 -13.27896,6.53318 -21.41485,0.2718 l 0,0 z"
   id="path3001"
   inkscape:connector-curvature="0"
   transform="scale(0.15,0.15)" /><path
   style="fill:#000080"
   d="m 316.5853,337.10356 c -7.97075,-3.64166 -8.05215,-10.76263 -0.33996,-29.74084 6.70159,-16.49132 7.07856,-18.86919 7.87579,-49.67938 l 0.83732,-32.35903 -7.60635,-18.17055 c -8.39074,-20.04439 -9.25574,-26.38813 -4.27704,-31.36684 10.62641,-10.6264 26.13146,8.386 35.00441,42.92267 9.36478,36.45108 3.72699,80.37632 -13.90025,108.29967 -6.547,10.37111 -11.17557,13.0267 -17.59392,10.0943 z"
   id="path3003"
   inkscape:connector-curvature="0"
   transform="scale(0.15,0.15)" /><path
   style="fill:#000080"
   d="m 358.26022,379.40104 c -1.89995,-4.16996 -0.0862,-9.66987 11.88434,-36.03648 17.78259,-39.16856 21.00843,-55.31506 19.54178,-97.81371 -1.19952,-34.75768 -4.25864,-46.26432 -21.80403,-82.01415 -6.33951,-12.91714 -11.52638,-25.18332 -11.52638,-27.25818 0,-5.2936 5.73763,-10.43106 11.64963,-10.43106 10.35415,0 27.59564,28.50728 40.504,66.96978 7.00164,20.8625 7.84559,25.86029 8.81051,52.17529 1.20882,32.96658 -1.41019,54.0796 -9.53048,76.8295 -7.11416,19.93111 -22.89342,50.33111 -29.6118,57.0495 -7.1131,7.11309 -16.80054,7.37063 -19.91757,0.52951 l 0,0 z"
   id="path3005"
   inkscape:connector-curvature="0"
   transform="scale(0.15,0.15)" /><path
   style="fill:#2a2aff"
   d="m 403.2061,427.47201 c -7.197,-5.04097 -5.14414,-12.68733 10.44709,-38.91269 26.91665,-45.27534 35.98456,-74.9789 37.51327,-122.88135 1.87765,-58.83712 -9.60775,-98.41361 -45.09051,-155.37323 -9.91645,-15.918632 -10.21178,-16.83435 -7.17443,-22.245759 2.58931,-4.613192 4.68342,-5.643727 11.4684,-5.643727 7.56015,0 9.18105,1.092813 18.16917,12.249614 21.95687,27.254712 42.95355,77.658052 49.84875,119.663862 4.51731,27.51958 3.06084,72.2428 -3.25496,99.94915 -8.8314,38.74184 -32.31703,88.5629 -51.18196,108.57449 -8.32247,8.82833 -13.18889,9.91202 -20.74482,4.61964 l 0,0 z"
   id="path3007"
   inkscape:connector-curvature="0"
   transform="scale(0.15,0.15)" /><path
   style="fill:#cc00ff"
   d="m 246.90636,420.62163 c -5.6396,-4.50557 -30.7517,-25.93133 -55.80467,-47.61282 l -45.55084,-39.42089 -53.080157,-0.0567 -53.080156,-0.0567 -6.545524,-6.8856 -6.545525,-6.88559 1.362968,-67.16237 c 1.020702,-50.29671 2.045064,-67.84413 4.079209,-69.87726 2.836143,-2.83473 38.652941,-5.3943 80.970195,-5.78637 12.23517,-0.11336 25.58263,-1.1604 29.66102,-2.32677 4.76219,-1.36192 22.95466,-15.46576 50.84746,-39.41986 60.20523,-51.703744 62.90731,-53.774828 70.15794,-53.774828 4.83316,0 6.71225,1.297682 8.43659,5.826271 3.07312,8.070707 3.07312,327.734387 0,335.805087 -3.30729,8.68576 -12.12356,7.84845 -24.90851,-2.36566 z"
   id="path3009"
   inkscape:connector-curvature="0"
   transform="scale(0.15,0.15)" /><path
   style="fill:#cc00ff"
   d="m 315.57203,335.42352 c -5.13429,-2.99045 -4.64355,-10.5397 1.83158,-28.17567 4.66473,-12.70507 5.79656,-20.33722 7.16936,-48.34452 l 1.63015,-33.25769 -7.13372,-17.58977 c -7.5691,-18.66331 -8.79598,-26.80386 -4.66262,-30.93723 8.31937,-8.31937 20.35983,5.30065 29.59243,33.47458 5.80419,17.71188 6.60355,23.05082 6.66144,44.49153 0.0737,27.30881 -3.42155,43.84656 -13.47723,63.76676 -3.38687,6.70935 -8.29785,13.69767 -10.91328,15.52959 -5.52582,3.87043 -5.79729,3.89688 -10.69811,1.04242 z"
   id="path3011"
   inkscape:connector-curvature="0"
   transform="scale(0.15,0.15)" /><path
   style="fill:#cc00ff"
   d="m 416.33447,258.26271 c -0.0119,-6.99152 0.3739,-10.10711 0.85732,-6.92353 0.48342,3.18358 0.49315,8.90392 0.0216,12.71186 -0.47152,3.80795 -0.86705,1.2032 -0.87894,-5.78833 z"
   id="path3013"
   inkscape:connector-curvature="0"
   transform="scale(0.15,0.15)" /><path
   style="fill:#cc00ff"
   d="m 359.16425,378.82612 c -0.71278,-1.8575 2.77659,-13.05983 7.75416,-24.89406 21.98697,-52.27429 22.11362,-52.83218 22.19956,-97.78799 0.0887,-46.38669 -0.75212,-50.35756 -19.20216,-90.68715 -6.29268,-13.75505 -11.44123,-26.67348 -11.44123,-28.70762 0,-5.06246 4.14284,-8.7832 9.7796,-8.7832 9.24263,0 26.55026,29.02833 39.52375,66.28921 6.74365,19.36827 6.79521,19.82834 6.81788,60.82944 0.0208,37.49696 -0.43754,42.78148 -4.96061,57.20339 -6.4189,20.46679 -22.65222,53.83705 -30.58445,62.87137 -6.84598,7.79714 -17.54452,9.76971 -19.8865,3.66661 l 0,0 z"
   id="path3015"
   inkscape:connector-curvature="0"
   transform="scale(0.15,0.15)" /><path
   style="fill:#e580ff"
   d="m 402.96174,425.63034 c -4.18991,-5.04854 -1.1925,-13.92197 13.96173,-41.33187 28.6332,-51.78968 33.54476,-70.49885 33.64331,-128.1544 0.0542,-31.68725 -0.74146,-43.59278 -3.73849,-55.94123 -5.25265,-21.64216 -14.401,-44.39486 -26.9151,-66.94013 -20.40543,-36.762177 -22.3316,-41.139841 -19.83973,-45.090281 1.52066,-2.410743 5.0456,-3.638531 10.44613,-3.638531 7.3696,0 9.08881,1.164097 17.93367,12.143078 15.66069,19.439364 34.67425,60.923834 44.92841,98.026414 5.91208,21.3917 7.54746,79.84629 2.96365,105.9322 -4.3679,24.85714 -11.97324,47.9075 -24.55721,74.42831 -20.87744,43.99934 -38.83876,62.60076 -48.82637,50.56644 l 0,0 z"
   id="path3017"
   inkscape:connector-curvature="0"
   transform="scale(0.15,0.15)" /><path
   style="fill:#e580ff"
   d="m 360.59322,376.81466 c 0,-1.79856 4.63074,-14.90767 10.29053,-29.13135 19.01489,-47.78656 18.31117,-44.22785 18.31117,-92.59856 0,-48.76843 0.21256,-47.72538 -18.47156,-90.64067 -11.52157,-26.46372 -12.17606,-32.94081 -3.43078,-33.95243 4.597,-0.53176 6.80072,1.03547 11.91633,8.47458 8.40439,12.22165 19.87257,35.24661 27.23371,54.67784 5.9314,15.65713 6.01984,16.5569 6.03847,61.44068 0.0213,51.34944 -0.1642,52.2823 -17.90691,90.04237 -12.23171,26.03155 -19.33358,34.95763 -27.81336,34.95763 -4.1471,0 -6.1676,-1.07128 -6.1676,-3.27009 z"
   id="path3019"
   inkscape:connector-curvature="0"
   transform="scale(0.15,0.15)" /><path
   style="fill:#e580ff"
   d="m 315.39548,334.18079 c -2.51211,-2.51211 -1.45501,-12.04851 2.86228,-25.82145 4.16456,-13.2857 8.39299,-49.66156 8.40928,-72.34239 0.006,-7.96333 -2.03857,-16.91492 -6.45698,-28.27399 -7.78909,-20.02459 -7.78025,-29.98872 0.0266,-29.98872 7.19632,0 15.35539,12.53239 22.75877,34.95762 5.18381,15.70203 5.94525,21.26464 5.94525,43.43221 0,15.3573 -1.17595,29.61807 -2.96997,36.01695 -3.44214,12.27731 -13.82514,34.3362 -18.69815,39.72457 -3.39055,3.74913 -9.28422,4.88806 -11.87708,2.2952 l 0,0 z"
   id="path3021"
   inkscape:connector-curvature="0"
   transform="scale(0.15,0.15)" /><path
   style="fill:#cc00ff"
   d="m 252.48413,423.06517 c -2.8811,-1.99636 -27.78696,-22.97093 -55.34636,-46.61017 l -50.10799,-42.98042 -52.760299,0 -52.7603,0 -7.111301,-7.337 -7.111301,-7.33701 1.447311,-61.49524 c 0.796021,-33.82238 2.004588,-64.28162 2.685704,-67.6872 0.776821,-3.8841 2.930405,-6.67112 5.778043,-7.47755 2.496808,-0.70707 26.430255,-2.22114 53.185435,-3.36461 26.755178,-1.14346 50.468358,-2.65749 52.695948,-3.3645 4.40933,-1.39946 33.93872,-24.89508 75.56505,-60.12474 33.09792,-28.011815 38.51049,-31.812154 45.30788,-31.812154 4.16436,0 5.8289,1.381603 7.01934,5.826271 0.85829,3.20445 1.5839,78.861553 1.6125,168.126893 0.0557,173.8066 0.33178,169.26718 -10.29553,169.26718 -2.51118,0 -6.92305,-1.63339 -9.80413,-3.62975 z"
   id="path3023"
   inkscape:connector-curvature="0"
   transform="scale(0.15,0.15)" /></svg>