<?xml version="1.0" encoding="UTF-8" standalone="yes"?>
<!DOCTYPE svg PUBLIC "-//W3C//DTD SVG 1.1//EN" "http://www.w3.org/Graphics/SVG/1.1/DTD/svg11.dtd">
<svg xmlns:svg="http://www.w3.org/2000/svg" xmlns="http://www.w3.org/2000/svg" version="1.1" viewBox="0 0 50 50" width="1000" height="1000">
<style type="text/css"><![CDATA[
#P0,#P1 {stroke:#000;stroke-width:.99999958}
#P0 {fill:url(#L2)}
#P1 {fill:url(#R0)}
#P2 {fill:#fff}
]]></style>
  <defs>
    <linearGradient id="L2" gradientUnits="userSpaceOnUse" x1="9.94695" y1="6.3660479" x2="38.992043" y2="44.297081">
      <stop style="stop-color:#00f"/>
      <stop style="stop-color:#000030" offset="1"/>
    </linearGradient>
    <radialGradient id="R0" gradientUnits="userSpaceOnUse" cx="24.933687" cy="25.066313" fx="24.933687" fy="25.066313" r="23">
      <stop style="stop-color:#0000a0"/>
      <stop style="stop-color:#0000a0" offset=".78571427"/>
      <stop style="stop-color:#0000a0;stop-opacity:0" offset="1"/>
    </radialGradient>
  </defs>
  <path id="P0" d="M49.634373,24.99999C 49.634373,38.530961 38.665353,49.499981 25.134382,49.499981C 11.603411,49.499981 .63439133,38.530961 .63439133,24.99999C .63439133,11.469019 11.603411,0.49999979 25.134382,0.49999979C 38.665353,0.49999979 49.634373,11.469019 49.634373,24.99999z" transform="translate(-.134407,-1.537613e-5)"/>
  <path id="P1" d="M49.499981,24.99999C 49.499981,38.530961 38.530961,49.499981 24.99999,49.499981C 11.469019,49.499981 .49999979,38.530961 .49999979,24.99999C .49999979,11.469019 11.469019,0.49999979 24.99999,0.49999979C 38.530961,0.49999979 49.499981,11.469019 49.499981,24.99999z" transform="translate(-1.502943e-5,-1.537613e-5)"/>
  <path id="P2" transform="matrix(0.77842,0,0,0.780512,34.01543,13.89918)" d="M-11.581707,21.861679L -14.123691,21.861679L -14.123691,20.51125C -14.123702,18.640082 -13.973655,17.179325 -13.673548,16.128975C -13.373465,15.07866 -12.870364,13.988609 -12.164245,12.858818C -11.987731,12.576396 -11.722942,12.170386 -11.369875,11.640784C -9.1986125,8.3397601 -8.1129744,5.4623779 -8.112957,3.0086284C -8.1129744,0.90799375 -8.5940092,-.72046336 -9.5560627,-1.8767478C -10.518148,-3.0329607 -11.872989,-3.6110851 -13.62059,-3.6111226C -14.679761,-3.6110851 -15.597699,-3.4169059 -16.374406,-3.0285845C -17.151132,-2.6401892 -17.53949,-2.2076993 -17.539482,-1.7311133C -17.53949,-1.5192459 -17.049629,-.96318732 -16.069898,-.062936062C -15.090185,0.83738314 -14.600324,1.8788896 -14.600313,3.0615864C -14.600324,4.3855661 -15.001922,5.4270726 -15.805108,6.1861089C -16.608313,6.9452006 -17.707191,7.3247326 -19.101744,7.324706C -20.584573,7.3247326 -21.78054,6.8657637 -22.689649,5.9477978C -23.598763,5.0298879 -24.053319,3.8295076 -24.053317,2.3466533C -24.053319,-.054075764 -22.901483,-2.092957 -20.597807,-3.7699966C -18.294141,-5.4469608 -15.429999,-6.2854618 -12.005371,-6.285502C -7.8923163,-6.2854618 -4.714839,-5.451374 -2.4729292,-3.7832361C -.23106547,-2.1150228 0.88987791,0.23719299 .88990431,3.2734184C .88987791,6.7157161 -1.7227145,10.290378 -6.9478809,13.997415L -7.3185869,14.262205C -9.1897862,15.586174 -10.368101,16.689464 -10.853534,17.572081C -11.338997,18.454729 -11.58172,19.602152 -11.581707,21.014351L -11.581707,21.861679z M-12.879178,24.536059C -11.484631,24.536068 -10.284251,25.039169 -9.2780332,26.045362C -8.2718483,27.051571 -7.7687477,28.243125 -7.76873,29.620027C -7.7687477,31.032244 -8.2674351,32.237037 -9.2647937,33.234411C -10.262185,34.231787 -11.466978,34.730474 -12.879178,34.730475C -14.291403,34.730474 -15.491783,34.227374 -16.480322,33.221172C -17.46888,32.214971 -17.963154,31.014591 -17.963147,29.620027C -17.963154,28.225472 -17.464467,27.029505 -16.467083,26.032122C -15.469717,25.034755 -14.27375,24.536068 -12.879178,24.536059L -12.879178,24.536059z"/>
</svg>