<?xml version="1.0" encoding="UTF-8" standalone="no"?>
<svg
   xmlns:dc="http://purl.org/dc/elements/1.1/"
   xmlns:cc="http://creativecommons.org/ns#"
   xmlns:rdf="http://www.w3.org/1999/02/22-rdf-syntax-ns#"
   xmlns:svg="http://www.w3.org/2000/svg"
   xmlns="http://www.w3.org/2000/svg"
   xmlns:sodipodi="http://sodipodi.sourceforge.net/DTD/sodipodi-0.dtd"
   xmlns:inkscape="http://www.inkscape.org/namespaces/inkscape"
   xml:space="preserve"
   version="1.0"
   id="layer1"
   width="400pt"
   height="400pt"
   viewBox="0 0 75 75"
   inkscape:version="0.48.2 r9819"
   sodipodi:docname="Mute_Icon_light-blue.svg"><defs
   id="defs3007" /><sodipodi:namedview
   pagecolor="#ffffff"
   bordercolor="#666666"
   borderopacity="1"
   objecttolerance="10"
   gridtolerance="10"
   guidetolerance="10"
   inkscape:pageopacity="0"
   inkscape:pageshadow="2"
   inkscape:window-width="1366"
   inkscape:window-height="746"
   id="namedview3005"
   showgrid="false"
   showguides="true"
   inkscape:guide-bbox="true"
   inkscape:zoom="0.649"
   inkscape:cx="-282.4196"
   inkscape:cy="171.8348"
   inkscape:window-x="-8"
   inkscape:window-y="-8"
   inkscape:window-maximized="1"
   inkscape:current-layer="g1"
   inkscape:snap-smooth-nodes="false"
   inkscape:object-paths="false"><sodipodi:guide
     orientation="0,1"
     position="42.491779,326.85984"
     id="guide3009" /><sodipodi:guide
     orientation="0,1"
     position="118.64407,164.86903"
     id="guide3011" /><sodipodi:guide
     orientation="1,0"
     position="324.34515,194.53005"
     id="guide3005" /><sodipodi:guide
     orientation="1,0"
     position="462.63482,170.64715"
     id="guide3007" /></sodipodi:namedview><metadata
   id="metadata1"><rdf:RDF><cc:Work
       rdf:about=""><dc:format>image/svg+xml</dc:format><dc:type
         rdf:resource="http://purl.org/dc/dcmitype/StillImage" /><dc:title></dc:title></cc:Work></rdf:RDF></metadata><g
   id="g1"><polygon
   id="polygon1"
   points="39.389,13.769 22.235,28.606 6,28.606 6,47.699 21.989,47.699 39.389,62.75 39.389,13.769"
   style="stroke:#111111;stroke-width:5;stroke-linejoin:round;fill:#111111;" />

<path
   id="path3003"
   d="M 48.651772,50.269646 69.395223,25.971024"
   style="fill:none;stroke:#111111;stroke-width:5;stroke-linecap:round"
   inkscape:connector-curvature="0"
   sodipodi:nodetypes="cc" />
<path
   id="path3003-1"
   d="M 69.395223,50.269646 48.651772,25.971024"
   style="fill:none;stroke:#111111;stroke-width:5;stroke-linecap:round"
   inkscape:connector-curvature="0"
   sodipodi:nodetypes="cc" /><path
   style="fill:#003380"
   d="m 253.3277,430.56659 c -2.54237,-1.63902 -28.8906,-24.13697 -58.55161,-49.99547 l -53.92913,-47.01544 -51.61787,-0.0969 c -28.38983,-0.0533 -53.017956,-0.47311 -54.729167,-0.93297 -1.711212,-0.45985 -4.679018,-3.12404 -6.595125,-5.92042 l -3.483831,-5.08425 0.431797,-68.75509 0.431796,-68.75507 4.270383,-4.27111 4.270383,-4.27111 54.517806,-0.45803 54.517808,-0.45803 55.23337,-47.83972 c 30.37837,-26.31184 56.95962,-48.513054 59.06943,-49.336022 5.49914,-2.145015 12.80121,-0.331265 17.10398,4.24843 l 3.7133,3.952279 0.41246,166.671283 c 0.30484,123.18553 -0.051,167.79045 -1.36419,170.96078 -4.04883,9.7754 -14.78219,13.10698 -23.70159,7.35688 z"
   id="path2995"
   inkscape:connector-curvature="0"
   transform="scale(0.15,0.15)" /><path
   style="fill:#003380"
   d="m 314.07204,345.84921 c -3.4719,-3.4719 -4.50397,-5.91173 -4.50397,-10.64746 0,-7.21609 0.27101,-7.58449 37.50377,-50.98156 22.36711,-26.07024 25.40657,-30.23687 23.60405,-32.35748 -1.13792,-1.33871 -14.47386,-16.99489 -29.63542,-34.7915 -15.16156,-17.79661 -28.68204,-34.54188 -30.04551,-37.21172 -4.95915,-9.71058 0.37864,-19.80601 11.4194,-21.59768 3.86901,-0.62786 6.79034,-0.11575 9.51179,1.66742 2.16028,1.41546 16.56123,17.32728 32.00211,35.35959 15.44088,18.03232 28.50557,33.08371 29.03263,33.44754 0.52707,0.36383 13.9685,-14.59273 29.86984,-33.2368 15.90134,-18.64407 30.37765,-34.74045 32.16958,-35.76974 9.78373,-5.61982 22.51846,1.77026 22.51846,13.06766 0,7.23566 1.14883,5.63866 -32.95773,45.81456 -14.38866,16.94915 -27.06993,31.90723 -28.18061,33.24017 -1.74603,2.09544 1.9705,7.10166 27.45324,36.97997 16.20995,19.00604 30.53103,36.16359 31.8246,38.12789 8.69994,13.21085 -7.32097,29.16981 -21.01425,20.93299 -2.2494,-1.35307 -16.57055,-17.25068 -31.82479,-35.32803 -15.25424,-18.07734 -28.42835,-32.87827 -29.27581,-32.89094 -0.84746,-0.0126 -14.36826,15.15011 -30.04622,33.69507 -15.67797,18.54496 -30.09812,34.45294 -32.04477,35.35106 -6.41394,2.9592 -12.56651,1.94287 -17.38039,-2.87101 l 0,0 z"
   id="path2997"
   inkscape:connector-curvature="0"
   transform="scale(0.15,0.15)" /></g>
</svg>